<svg width="53" height="52" viewBox="0 0 53 52" fill="none" xmlns="http://www.w3.org/2000/svg" class="accessibiliteHeader nonStickyAccessibilityHeader">
<path class="back" d="M53 26C53 11.6406 41.1355 0 26.5 0C11.8645 0 0 11.6406 0 26C0 40.3594 11.8645 52 26.5 52C41.1355 52 53 40.3594 53 26Z" />
<path class="head" d="M26.8475 11.4758C26.2019 11.4777 25.5833 11.7273 25.1269 12.17C24.6704 12.6127 24.4131 13.2126 24.4111 13.8386V15.0206C24.4131 15.6466 24.6704 16.2465 25.1269 16.6892C25.5833 17.1319 26.2019 17.3815 26.8475 17.3834H28.0662C28.3891 17.3826 28.6986 17.2578 28.927 17.0363C29.1553 16.8148 29.284 16.5147 29.2848 16.2015V13.8386C29.2829 13.2124 29.0254 12.6123 28.5687 12.1696C28.112 11.7269 27.4932 11.4774 26.8475 11.4758Z" />
<path class="body" d="M40.5541 20.1453C40.5535 20.4898 40.4122 20.8201 40.161 21.0637C39.9098 21.3073 39.5693 21.4444 39.2141 21.4449H32.5434C32.1401 21.4462 31.7536 21.6023 31.4684 21.8789C31.1831 22.1555 31.0223 22.5303 31.0209 22.9215V39.714C31.0259 39.8858 30.9953 40.0568 30.931 40.2169C30.8667 40.377 30.7699 40.523 30.6464 40.6462C30.5229 40.7694 30.3751 40.8673 30.2119 40.9342C30.0487 41.0011 29.8733 41.0355 29.6961 41.0355C29.519 41.0355 29.3436 41.0011 29.1804 40.9342C29.0171 40.8673 28.8694 40.7694 28.7459 40.6462C28.6224 40.523 28.5256 40.377 28.4613 40.2169C28.397 40.0568 28.3664 39.8858 28.3714 39.714V30.6751C28.3714 30.2834 28.2109 29.9076 27.9253 29.6306C27.6397 29.3536 27.2523 29.198 26.8483 29.198C26.4444 29.198 26.0569 29.3536 25.7713 29.6306C25.4857 29.9076 25.3252 30.2834 25.3252 30.6751V39.714C25.3252 40.0568 25.1848 40.3855 24.9349 40.6279C24.685 40.8703 24.346 41.0064 23.9926 41.0064C23.6391 41.0064 23.3001 40.8703 23.0502 40.6279C22.8003 40.3855 22.6599 40.0568 22.6599 39.714V22.9215C22.6585 22.5303 22.4977 22.1555 22.2124 21.8789C21.9272 21.6023 21.5407 21.4462 21.1373 21.4449H14.4678C14.1164 21.4446 13.7794 21.3091 13.531 21.0682C13.2825 20.8272 13.1428 20.5004 13.1425 20.1596C13.1411 19.9898 13.1743 19.8214 13.2403 19.664C13.3062 19.5067 13.4035 19.3635 13.5267 19.2427C13.6498 19.122 13.7963 19.026 13.9578 18.9603C14.1193 18.8946 14.2926 18.8606 14.4678 18.86H39.2141C39.3892 18.8587 39.5629 18.8909 39.7251 18.9548C39.8874 19.0188 40.035 19.1132 40.1595 19.2326C40.284 19.352 40.383 19.4941 40.4507 19.6508C40.5184 19.8074 40.5536 19.9755 40.5541 20.1453Z" />
</svg>
