<?xml version="1.0" encoding="UTF-8" standalone="no"?>
<!-- Generator: Adobe Illustrator 16.0.0, SVG Export Plug-In . SVG Version: 6.00 Build 0)  -->

<svg
   version="1.1"
   id="Capa_1"
   x="0px"
   y="0px"
   width="342.508px"
   height="342.508px"
   viewBox="0 0 342.508 342.508"
   style="enable-background:new 0 0 342.508 342.508;"
   xml:space="preserve"
   sodipodi:docname="check-mark-button.svg"
   inkscape:version="1.2.1 (0f2f062aeb, 2022-09-21, custom)"
   xmlns:inkscape="http://www.inkscape.org/namespaces/inkscape"
   xmlns:sodipodi="http://sodipodi.sourceforge.net/DTD/sodipodi-0.dtd"
   xmlns="http://www.w3.org/2000/svg"
   xmlns:svg="http://www.w3.org/2000/svg"><defs
   id="defs55" /><sodipodi:namedview
   id="namedview53"
   pagecolor="#ffffff"
   bordercolor="#666666"
   borderopacity="1.0"
   inkscape:showpageshadow="2"
   inkscape:pageopacity="0.0"
   inkscape:pagecheckerboard="0"
   inkscape:deskcolor="#d1d1d1"
   showgrid="false"
   inkscape:zoom="2.3006762"
   inkscape:cx="281.65632"
   inkscape:cy="171.47133"
   inkscape:window-width="1920"
   inkscape:window-height="1016"
   inkscape:window-x="0"
   inkscape:window-y="0"
   inkscape:window-maximized="1"
   inkscape:current-layer="Capa_1" />
<g
   id="g20"
   style="fill:#f29100;fill-opacity:1">
	<path
   d="M171.254,0C76.837,0,0.003,76.819,0.003,171.248c0,94.428,76.829,171.26,171.251,171.26   c94.438,0,171.251-76.826,171.251-171.26C342.505,76.819,265.697,0,171.254,0z M245.371,136.161l-89.69,89.69   c-2.693,2.69-6.242,4.048-9.758,4.048c-3.543,0-7.059-1.357-9.761-4.048l-39.007-39.007c-5.393-5.398-5.393-14.129,0-19.521   c5.392-5.392,14.123-5.392,19.516,0l29.252,29.262l79.944-79.948c5.381-5.386,14.111-5.386,19.504,0   C250.764,122.038,250.764,130.769,245.371,136.161z"
   id="path18"
   style="fill:#f29100;fill-opacity:1" />
</g>
<g
   id="g22">
</g>
<g
   id="g24">
</g>
<g
   id="g26">
</g>
<g
   id="g28">
</g>
<g
   id="g30">
</g>
<g
   id="g32">
</g>
<g
   id="g34">
</g>
<g
   id="g36">
</g>
<g
   id="g38">
</g>
<g
   id="g40">
</g>
<g
   id="g42">
</g>
<g
   id="g44">
</g>
<g
   id="g46">
</g>
<g
   id="g48">
</g>
<g
   id="g50">
</g>
</svg>
