<?xml version="1.0" encoding="UTF-8"?><svg id="a" xmlns="http://www.w3.org/2000/svg" viewBox="0 0 200 200"><path d="M149.3,71.96c-.24-3.07-1.44-5.63-3.38-7.23-3.06-2.51-7.66-3.53-12.3-2.75-5.07,.86-12.53,4.2-19.32,15.25-5.23,8.53-7.64,19.21-7.29,31.16-4.75-.13-8.93-2.2-12.77-6.32-7.2-7.72-3.7-13.99,3.11-24.39,5.39-8.25,11.51-17.6,10.19-29.81-.55-5.11-2.96-9.33-7.17-12.53-15.01-11.42-48.31-6.11-49.73-5.88l.65,3.95c.33-.05,33.02-5.26,46.66,5.12,3.34,2.54,5.18,5.74,5.61,9.77,1.16,10.79-4.54,19.51-9.56,27.19-6.36,9.73-12.37,18.92-2.69,29.31,4.63,4.97,9.98,7.53,15.91,7.6,1,12.7,4.96,26.66,11.81,40.91l-13.9,2.37c8.75,3.07,19.32,10.04,26.74,16.28-1.56-9.57-2.12-22.21-.27-31.3l-9.09,10.63c-6.57-13.72-10.37-27.11-11.33-39.21,11.06-1.85,21.79-11.5,29.14-19.7,6.17-6.88,9.44-14.33,8.97-20.43Zm-11.95,17.76c-6.81,7.6-16.63,16.52-26.38,18.35-.29-11.07,1.93-20.91,6.73-28.74,6-9.77,12.32-12.68,16.57-13.4,.83-.14,1.62-.2,2.38-.2,3.01,0,5.38,1,6.72,2.11,1.09,.89,1.78,2.47,1.93,4.44,.18,2.37-.23,8.83-7.96,17.45Z"/></svg>