<?xml version="1.0" encoding="UTF-8"?><svg id="a" xmlns="http://www.w3.org/2000/svg" viewBox="0 0 200 200"><path d="M146.69,33.34c-17.64-.85-32.3,.47-43.6,3.91-26.48,8.06-37.66,15.63-38.57,26.13-.95,10.88,12.75,16.73,26.86,21.8,6.8,2.44,10.59,5.44,10.95,8.68,.42,3.78-3.63,8.51-11.74,13.69-2.19,1.4-4.66,2.91-7.29,4.52-13.49,8.27-31.69,19.44-42.95,33.74l-10.18-10.12c2.58,8.91,3.04,21.56,2.26,31.22,6.89-6.82,16.86-14.61,25.33-18.38l-13.52-1.2c10.88-13.29,28.22-23.93,41.14-31.85,2.64-1.62,5.13-3.15,7.35-4.56,9.61-6.14,14.18-12.02,13.56-17.5-.55-4.93-5.12-8.97-13.58-12-15-5.38-24.86-10.45-24.23-17.69,.74-8.47,11.43-15.24,35.75-22.65,25.94-7.9,64.51-1.56,64.89-1.49l.66-3.94c-.1-.02-10.04-1.67-23.12-2.3Z"/></svg>