<svg version="1.1" id="Calque_1" xmlns="http://www.w3.org/2000/svg" xmlns:xlink="http://www.w3.org/1999/xlink" x="0px" y="0px"
	 viewBox="0 0 100 100" style="enable-background:new 0 0 100 100;" xml:space="preserve">
<g>
	<path d="M50,40.9c-5,0-9.1,4.1-9.1,9.1c0,5,4.1,9.1,9.1,9.1s9.1-4.1,9.1-9.1C59.1,45,55,40.9,50,40.9z"/>
	<path d="M71.4,33.8c-0.5-1.3-1.1-2.2-2.1-3.2c-1-1-1.9-1.6-3.2-2.1c-1-0.4-2.4-0.8-5.1-0.9c-2.9-0.1-3.8-0.2-11.1-0.2
		c-7.3,0-8.2,0-11.1,0.2c-2.7,0.1-4.1,0.6-5.1,0.9c-1.3,0.5-2.2,1.1-3.2,2.1c-1,1-1.6,1.9-2.1,3.2c-0.4,1-0.8,2.4-0.9,5.1
		c-0.1,2.9-0.2,3.8-0.2,11.1c0,7.3,0,8.2,0.2,11.1c0.1,2.7,0.6,4.1,0.9,5.1c0.5,1.3,1.1,2.2,2.1,3.2c1,1,1.9,1.6,3.2,2.1
		c1,0.4,2.4,0.8,5.1,0.9c2.9,0.1,3.8,0.2,11.1,0.2s8.2,0,11.1-0.2c2.7-0.1,4.1-0.6,5.1-0.9c1.3-0.5,2.2-1.1,3.2-2.1
		c1-1,1.6-1.9,2.1-3.2c0.4-1,0.8-2.4,0.9-5.1c0.1-2.9,0.2-3.8,0.2-11.1c0-7.3,0-8.2-0.2-11.1C72.2,36.2,71.7,34.8,71.4,33.8z
		 M50,64.1c-7.8,0-14.1-6.3-14.1-14.1c0-7.8,6.3-14.1,14.1-14.1c7.8,0,14.1,6.3,14.1,14.1C64.1,57.8,57.8,64.1,50,64.1z M64.6,38.7
		c-1.8,0-3.3-1.5-3.3-3.3c0-1.8,1.5-3.3,3.3-3.3c1.8,0,3.3,1.5,3.3,3.3C67.9,37.2,66.5,38.7,64.6,38.7z"/>
	<path d="M82.1,0H17.9C8,0,0,8,0,17.9v64.3C0,92,8,100,17.9,100h64.3c9.9,0,17.9-8,17.9-17.9V17.9C100,8,92,0,82.1,0z M77.3,61.3
		c-0.1,2.9-0.6,4.9-1.3,6.7c-0.7,1.8-1.6,3.3-3.2,4.9c-1.5,1.5-3.1,2.5-4.9,3.2c-1.7,0.7-3.7,1.1-6.7,1.3c-2.9,0.1-3.9,0.2-11.3,0.2
		s-8.4,0-11.3-0.2c-2.9-0.1-4.9-0.6-6.7-1.3c-1.8-0.7-3.3-1.6-4.9-3.2c-1.5-1.5-2.5-3.1-3.2-4.9c-0.7-1.7-1.1-3.7-1.3-6.7
		c-0.1-2.9-0.2-3.9-0.2-11.3c0-7.4,0-8.4,0.2-11.3c0.1-2.9,0.6-4.9,1.3-6.7c0.7-1.8,1.6-3.3,3.2-4.9c1.5-1.5,3.1-2.5,4.9-3.2
		c1.7-0.7,3.7-1.1,6.7-1.3c2.9-0.1,3.9-0.2,11.3-0.2s8.4,0,11.3,0.2c2.9,0.1,4.9,0.6,6.7,1.3c1.8,0.7,3.3,1.6,4.9,3.2
		c1.5,1.5,2.5,3.1,3.2,4.9c0.7,1.7,1.1,3.7,1.3,6.7c0.1,2.9,0.2,3.9,0.2,11.3C77.4,57.4,77.4,58.4,77.3,61.3z"/>
</g>
</svg>
