<svg aria-hidden="true" focusable="false" version="1.1" id="Calque_1" xmlns="http://www.w3.org/2000/svg" xmlns:xlink="http://www.w3.org/1999/xlink" x="0px" y="0px"
	 viewBox="0 0 100 100" style="enable-background:new 0 0 100 100;" xml:space="preserve">
<path d="M82.1,0H17.9C8,0,0,8,0,17.9v64.3C0,92,8,100,17.9,100h64.3c9.9,0,17.9-8,17.9-17.9V17.9C100,8,92,0,82.1,0z M37.7,72.3
	H27.3V38.9h10.3V72.3z M32.5,34.5c-3.4,0-6.1-2.8-6.1-6.2s2.7-6.2,6.1-6.2c3.4,0,6.1,2.8,6.1,6.2S35.8,34.5,32.5,34.5z M76.5,72.3
	H66.2c0,0,0-12.7,0-17.5c0-4.8-1.8-7.5-5.6-7.5c-4.1,0-6.3,2.8-6.3,7.5c0,5.2,0,17.5,0,17.5h-9.9V38.9h9.9v4.5c0,0,3-5.5,10.1-5.5
	c7.1,0,12.2,4.3,12.2,13.3C76.5,60.1,76.5,72.3,76.5,72.3z"/>
</svg>
