<svg width="80" height="78" viewBox="0 0 80 78" fill="none" xmlns="http://www.w3.org/2000/svg"><path d="M0.0585938 0H79.8001V77.9514H0.0585938V0Z" fill="black"/><path d="M38.9514 68.75C36.0113 64.2555 34.8042 58.8977 35.5433 53.6235C36.1848 49.385 41.1165 44.6798 52.5839 38.0692C63.0889 32.0031 69.2667 26.2869 72.9925 20.2207C72.9925 20.2207 90.6746 51.1348 58.3175 69.4111C48.2936 75.0884 42.7204 72.5219 42.7204 72.5219" fill="white"/><path d="M26.5618 76.6828C32.7766 75.2829 44.2882 68.5987 50.3026 64.1227C54.6994 60.6515 58.4903 56.5155 61.5293 51.8738C62.9727 49.7739 66.8219 49.1108 65.6591 52.5737C63.494 58.9121 47.0147 73.1053 33.4624 76.1384L26.5618 76.6828Z" fill="black"/></svg>
