<?xml version="1.0" encoding="iso-8859-1"?>
<!-- Generator: Adobe Illustrator 27.0.0, SVG Export Plug-In . SVG Version: 6.00 Build 0)  -->
<svg version="1.1" id="Capa_1" xmlns="http://www.w3.org/2000/svg" xmlns:xlink="http://www.w3.org/1999/xlink" x="0px" y="0px"
	 viewBox="-49 141 512 512" style="enable-background:new -49 141 512 512;" xml:space="preserve">
<path fill="black" d="M458.49,242.721L303.211,397L458.49,551.279c2.807-5.867,4.51-12.353,4.51-19.279V262
	C463,255.073,461.297,248.588,458.49,242.721z"/>
<path fill="black" d="M238.816,418.973L437.279,221.51C431.412,218.703,424.927,217,418,217H-4c-6.927,0-13.412,1.703-19.279,4.51
	l198.463,197.463C192.732,436.521,221.268,436.521,238.816,418.973z"/>
<path fill="black" d="M-44.49,242.721C-47.297,248.588-49,255.073-49,262v270c0,6.927,1.703,13.413,4.51,19.279L110.789,397L-44.49,242.721z"/>
<path fill="black" d="M260.027,440.184c-29.239,29.239-76.816,29.239-106.055,0L132,418.211L-23.279,572.49C-17.412,575.297-10.927,577-4,577h422
	c6.927,0,13.412-1.703,19.279-4.51L282,418.211L260.027,440.184z"/>
</svg>
