<?xml version="1.0" encoding="utf-8"?>
<!-- Generator: Adobe Illustrator 27.0.0, SVG Export Plug-In . SVG Version: 6.00 Build 0)  -->
<svg version="1.1" id="Calque_1" xmlns="http://www.w3.org/2000/svg" xmlns:xlink="http://www.w3.org/1999/xlink" x="0px" y="0px"
	 viewBox="-54 -54 390.5 390.5" style="enable-background:new -54 -54 390.5 390.5;" xml:space="preserve">
	<path fill="black" d="M241.3,204.3
		c-12.6-12.4-28.2-12.4-40.7,0c-9.5,9.4-19,18.9-28.4,28.5c-2.6,2.6-4.7,3.2-7.8,1.4c-6.2-3.4-12.7-6.1-18.6-9.8
		c-27.6-17.4-50.7-39.7-71.2-64.8c-10.2-12.5-19.2-25.8-25.5-40.9c-1.3-3-1-5,1.4-7.5c9.5-9.2,18.8-18.6,28.2-28.1
		c13-13.1,13-28.5-0.1-41.7C71,34,63.6,26.6,56.2,19.1c-7.7-7.7-15.3-15.4-23-23C20.6-16.2,4.9-16.2-7.6-3.9
		c-9.6,9.4-18.8,19.1-28.6,28.4c-9,8.6-13.6,19-14.6,31.3c-1.5,19.9,3.4,38.7,10.2,57C-26.4,150.8-5,184.5,21,215.3
		c35.1,41.8,77,74.8,126.1,98.6c22.1,10.7,45,19,69.8,20.3c17.1,1,32-3.4,43.9-16.7c8.2-9.1,17.4-17.4,26-26.2
		c12.8-13,12.9-28.6,0.2-41.4C271.8,234.7,256.6,219.5,241.3,204.3L241.3,204.3z M241.3,204.3"/>
</svg>
